<?xml version="1.0" encoding="utf-8"?>
<!-- Generator: Adobe Illustrator 19.0.0, SVG Export Plug-In . SVG Version: 6.00 Build 0)  -->
<svg xmlns="http://www.w3.org/2000/svg" xmlns:xlink="http://www.w3.org/1999/xlink" version="1.1" id="MESG-BG" x="0px" y="0px" viewBox="0 0 841.9 575.5" style="enable-background:new 0 0 841.9 575.5;" xml:space="preserve">
<style type="text/css">
	.st0{fill:#13002C;}
	.st1{fill:#19083C;}
	.st2{fill:#1E0F48;}
	.st3{fill:#201351;}
</style>
<g id="BG-forms">
	<polyline id="XMLID_23_" class="st0" points="324.6,76.8 219.6,239 373,406 844.9,188.3 723,139.5 667.5,270.1 324.6,76.8  "/>
	<polyline id="XMLID_24_" class="st1" points="844.9,188.3 373,406 667.5,270.1 844.9,358.5 844.9,188.3  "/>
	<polyline id="XMLID_25_" class="st1" points="219.6,239 219.6,239 219.6,239 0,578.1 373,406 373,406 373,406 373,406 219.6,239     "/>
	<path id="XMLID_28_" class="st2" d="M373,406L0,578.1h313.8L373,406 M373,406L373,406L373,406L373,406"/>
	<polyline id="XMLID_29_" class="st1" points="188.3,0 0,0 219.6,239 324.6,76.8 188.3,0  "/>
	<path id="XMLID_32_" class="st2" d="M219.6,239L0,295.7v282.4L219.6,239 M0,0l219.6,239l0,0L0,0"/>
	<polyline id="XMLID_33_" class="st1" points="374.3,0 374.3,0 324.6,76.8 667.5,270.1 723,139.5 374.3,0  "/>
	<polyline id="XMLID_34_" class="st2" points="374.3,0 188.3,0 324.6,76.8 374.3,0  "/>
	<polyline id="XMLID_35_" class="st1" points="373,406 531.2,578.1 844.9,578.1 373,406  "/>
	<polyline id="XMLID_38_" class="st3" points="0,0 0,0 0,295.7 219.6,239 219.6,239 0,0  "/>
	<polyline id="XMLID_40_" class="st3" points="373,406 373,406 313.8,578.1 531.2,578.1 373,406 373,406 373,406  "/>
	<polyline id="XMLID_41_" class="st2" points="667.5,270.1 373,406 373,406 844.9,578.1 844.9,358.5 667.5,270.1  "/>
	<polyline id="XMLID_44_" class="st1" points="844.9,0 782.2,0 723,139.5 844.9,188.3 844.9,0  "/>
	<polyline id="XMLID_45_" class="st2" points="782.2,0 374.3,0 723,139.5 782.2,0  "/>
</g>
</svg>