<?xml version="1.0" encoding="utf-8"?>
<!-- Generator: Adobe Illustrator 21.0.0, SVG Export Plug-In . SVG Version: 6.00 Build 0)  -->
<svg version="1.1" id="MESG-logo" xmlns="http://www.w3.org/2000/svg" xmlns:xlink="http://www.w3.org/1999/xlink" x="0px" y="0px"
		viewBox="0 0 793.7 402.5" style="enable-background:new 0 0 793.7 402.5;" xml:space="preserve">
<style type="text/css">
	.st0{fill:white;}
	.st1{fill:#FFCB1B;}
</style>
<g id="Logo">
	<path id="MESG" class="st0" d="M178.2,124.8v153c0,3.4-0.9,6.1-2.8,8c-1.9,1.9-4.5,2.8-8,2.8c-3.4,0-6.1-0.9-8-2.8 c-1.9-1.9-2.8-4.5-2.8-8V158.5l-47.4,69.8c-1.7,2.4-3.6,4.2-5.7,5.3c-2.1,1.1-4.6,1.7-7.5,1.7c-2.1,0-3.9-0.6-5.5-1.7 c-1.6-1.1-3.3-2.9-5-5.3l-47.6-70v119.5c0,3.4-0.9,6.1-2.8,8c-1.9,1.9-4.6,2.8-8,2.8c-3.4,0-6.1-0.9-8-2.8c-1.9-1.9-2.8-4.5-2.8-8 v-153c0-3.4,0.9-6.1,2.8-8c1.9-1.9,4.5-2.8,8-2.8c4.8,0,8.8,2.3,11.8,7l58.7,88.3l58.7-88.3c2.9-4.6,7.3-7,13.1-7 C175.3,114,178.2,117.6,178.2,124.8z M368.8,269.8c1.9,1.9,2.8,4.6,2.8,8c0,3.4-0.9,6.1-2.8,8c-1.9,1.9-4.6,2.8-8,2.8h-92.4 c-3.4,0-6.1-0.9-8-2.8c-1.9-1.9-2.8-4.5-2.8-8v-153c0-3.4,0.9-6.1,2.8-8c1.9-1.9,4.5-2.8,8-2.8h92.4c3.4,0,6.1,0.9,8,2.8 c1.9,1.9,2.8,4.6,2.8,8c0,3.4-0.9,6.1-2.8,8c-1.9,1.9-4.6,2.8-8,2.8h-81.6v54.1h51.2c3.4,0,6.1,0.9,8,2.8c1.9,1.9,2.8,4.6,2.8,8 c0,3.4-0.9,6.1-2.8,8c-1.9,1.9-4.6,2.8-8,2.8h-51.2v55.6h81.6C364.2,266.9,366.9,267.9,368.8,269.8z M447.7,279.7 c-8.2-5.9-13.3-15.1-15.3-27.4c-0.3-3.6,0.4-6.4,2.3-8.4c1.9-2,4.6-3,8.2-3c3.4,0,6,0.8,7.7,2.5c1.7,1.6,2.9,4.3,3.6,8.1 c1.2,5.8,3.9,9.9,8.1,12.1c4.2,2.2,10.8,3.3,19.7,3.3h37.1c7.6,0,13.3-0.9,17.4-2.6c4-1.7,6.9-4.6,8.6-8.6s2.6-9.7,2.6-17.1 c0-11-2.1-18.5-6.2-22.7c-4.1-4.1-11.6-6.2-22.4-6.2h-31.9c-16.1,0-28.2-3.9-36-11.8c-7.9-7.9-11.8-20-11.8-36.3 c0-16.1,3.9-28.1,11.7-35.9c7.8-7.8,19.8-11.7,35.9-11.7h30.6c27.1,0,42.7,11.3,46.9,34c0.5,3.6-0.2,6.4-2.1,8.4 c-1.9,2-4.7,3-8.5,3c-3.4,0-6-0.9-7.7-2.6c-1.7-1.7-2.8-4.4-3.3-8c-1.4-5-4-8.4-7.7-10.3c-3.8-1.9-9.6-2.8-17.5-2.8H487 c-7,0-12.4,0.8-16.1,2.3c-3.7,1.5-6.3,4.2-7.7,7.9c-1.5,3.7-2.2,9-2.2,15.8c0,7,0.8,12.4,2.3,16.1c1.5,3.7,4.2,6.4,7.9,8 c3.7,1.6,9.1,2.4,16.1,2.4h31.9c17,0,29.6,4.1,37.9,12.4c8.2,8.2,12.4,20.9,12.4,38.1c0,17-4.1,29.6-12.4,37.7 c-8.2,8.2-20.9,12.2-37.9,12.2h-37.1C467.3,288.6,455.9,285.6,447.7,279.7z M650.3,274.5c-9.4-9.4-14-23.9-14-43.6v-59.2 c0-19.7,4.7-34.3,14-43.8c9.4-9.4,23.8-14.1,43.4-13.9h31.2c16.1,0,28.5,3.3,37,10c8.5,6.7,13.4,17.2,14.8,31.4 c0.5,3.6-0.2,6.4-2.1,8.2c-1.9,1.9-4.6,2.8-8.2,2.8c-3.4,0-6.1-0.9-7.9-2.7c-1.8-1.8-3-4.5-3.5-8.1c-0.9-7.7-3.5-13-8-15.8 c-4.5-2.8-11.8-4.2-22.1-4.2h-31.2c-9.3-0.2-16.5,0.9-21.6,3.1c-5.1,2.2-8.8,5.9-10.9,11.1c-2.1,5.2-3.2,12.4-3.2,21.9v59.2 c0,9.4,1.1,16.7,3.4,21.8c2.2,5.1,5.9,8.7,10.9,10.9c5.1,2.2,12.3,3.3,21.8,3.3h30.9c8.2,0,14.5-0.9,18.9-2.7 c4.4-1.8,7.5-4.9,9.3-9.3c1.8-4.4,2.7-10.7,2.7-18.9v-12.1l-20.1-0.3c-7.2,0-10.8-3.6-10.8-10.8c0-3.4,0.9-6.1,2.8-8 c1.9-1.9,4.5-2.8,8-2.8l30.9,0.3c3.4,0,6.1,0.9,8,2.8c1.9,1.9,2.8,4.6,2.8,8V236c0,18.2-4.2,31.5-12.7,39.9 c-8.5,8.4-21.8,12.6-39.8,12.6H694C674.2,288.6,659.7,283.9,650.3,274.5z"/>
	<path id="Lines" class="st1" d="M507.7,58.7c-0.7,0-1.4-0.2-1.9-0.6c-1.4-1.1-1.7-3.1-0.6-4.5l35.4-46.9c0.6-0.8,1.6-1.3,2.6-1.3 h241.8c1.8,0,3.2,1.4,3.2,3.2s-1.4,3.2-3.2,3.2H544.6l-34.4,45.6C509.6,58.2,508.6,58.7,507.7,58.7z M788,34.3 c0-1.8-1.4-3.2-3.2-3.2H562.1c-1.8,0-3.2,1.4-3.2,3.2c0,1.8,1.4,3.2,3.2,3.2h222.7C786.6,37.5,788,36.1,788,34.3z M254.9,395.9 l35.4-46.9c1.1-1.4,0.8-3.4-0.6-4.5c-1.4-1.1-3.4-0.8-4.5,0.6l-34.4,45.6H8.9c-1.8,0-3.2,1.4-3.2,3.2c0,1.8,1.4,3.2,3.2,3.2h243.5 C253.4,397.2,254.3,396.7,254.9,395.9z M236.5,368.2c0-1.8-1.4-3.2-3.2-3.2H8.9c-1.8,0-3.2,1.4-3.2,3.2s1.4,3.2,3.2,3.2h224.4 C235.1,371.5,236.5,370,236.5,368.2z"/>
</g>
</svg>
