<?xml version="1.0" encoding="utf-8"?>
<!-- Generator: Adobe Illustrator 21.0.0, SVG Export Plug-In . SVG Version: 6.00 Build 0)  -->
<svg version="1.1" id="MESG-HEAD" xmlns="http://www.w3.org/2000/svg" xmlns:xlink="http://www.w3.org/1999/xlink" x="0px" y="0px"
	 viewBox="0 0 1014.5 250.3" style="enable-background:new 0 0 1014.5 250.3;" xml:space="preserve">
<style type="text/css">
	.st0{fill:#201351;}
	.st1{fill:#FFCB1B;}
	.st2{fill:#878787;}
</style>
<g id="Logo_10_">
	<path id="MESG_10_" class="st0" d="M110.2,76.3v97.8c0,2.2-0.6,3.9-1.8,5.1c-1.2,1.2-2.9,1.8-5.1,1.8c-2.2,0-3.9-0.6-5.1-1.8
		c-1.2-1.2-1.8-2.9-1.8-5.1V97.8l-30.3,44.6c-1.1,1.5-2.3,2.7-3.6,3.4c-1.3,0.7-2.9,1.1-4.8,1.1c-1.3,0-2.5-0.4-3.5-1.1
		c-1-0.7-2.1-1.9-3.2-3.4L20.6,97.7v76.4c0,2.2-0.6,3.9-1.8,5.1c-1.2,1.2-2.9,1.8-5.1,1.8s-3.9-0.6-5.1-1.8
		c-1.2-1.2-1.8-2.9-1.8-5.1V76.3c0-2.2,0.6-3.9,1.8-5.1s2.9-1.8,5.1-1.8c3.1,0,5.6,1.5,7.5,4.5l37.5,56.4l37.5-56.4
		c1.9-2.9,4.7-4.5,8.4-4.5C108.4,69.4,110.2,71.7,110.2,76.3z M232,168.9c1.2,1.2,1.8,2.9,1.8,5.1s-0.6,3.9-1.8,5.1
		c-1.2,1.2-2.9,1.8-5.1,1.8h-59c-2.2,0-3.9-0.6-5.1-1.8c-1.2-1.2-1.8-2.9-1.8-5.1V76.3c0-2.2,0.6-3.9,1.8-5.1
		c1.2-1.2,2.9-1.8,5.1-1.8h59c2.2,0,3.9,0.6,5.1,1.8s1.8,2.9,1.8,5.1c0,2.2-0.6,3.9-1.8,5.1c-1.2,1.2-2.9,1.8-5.1,1.8h-52.1v34.6
		h32.7c2.2,0,3.9,0.6,5.1,1.8c1.2,1.2,1.8,2.9,1.8,5.1c0,2.2-0.6,3.9-1.8,5.1c-1.2,1.2-2.9,1.8-5.1,1.8h-32.7v35.5h52.1
		C229.1,167.1,230.8,167.7,232,168.9z M282.4,175.3c-5.2-3.8-8.5-9.6-9.8-17.5c-0.2-2.3,0.3-4.1,1.5-5.4s2.9-1.9,5.2-1.9
		c2.2,0,3.8,0.5,4.9,1.6c1.1,1,1.9,2.7,2.3,5.2c0.8,3.7,2.5,6.3,5.2,7.7c2.7,1.4,6.9,2.1,12.6,2.1h23.7c4.9,0,8.5-0.6,11.1-1.7
		c2.6-1.1,4.4-2.9,5.5-5.5c1.1-2.6,1.7-6.2,1.7-10.9c0-7-1.3-11.8-4-14.5c-2.6-2.6-7.4-4-14.3-4h-20.4c-10.3,0-18-2.5-23-7.5
		c-5-5-7.5-12.8-7.5-23.2c0-10.3,2.5-18,7.5-22.9c5-5,12.7-7.5,22.9-7.5h19.6c17.3,0,27.3,7.2,30,21.7c0.3,2.3-0.1,4.1-1.3,5.4
		c-1.2,1.3-3,1.9-5.4,1.9c-2.2,0-3.8-0.6-4.9-1.7c-1.1-1.1-1.8-2.8-2.1-5.1c-0.9-3.2-2.6-5.4-4.9-6.6c-2.4-1.2-6.1-1.8-11.2-1.8
		h-19.6c-4.5,0-7.9,0.5-10.3,1.5s-4,2.7-4.9,5c-1,2.4-1.4,5.8-1.4,10.1c0,4.5,0.5,7.9,1.5,10.3c1,2.4,2.7,4.1,5,5.1
		s5.8,1.5,10.3,1.5h20.4c10.9,0,18.9,2.6,24.2,7.9c5.2,5.2,7.9,13.4,7.9,24.3c0,10.9-2.6,18.9-7.9,24.1c-5.2,5.2-13.4,7.8-24.2,7.8
		h-23.7C295,181,287.7,179,282.4,175.3z M411.9,171.9c-6-6-8.9-15.3-8.9-27.9v-37.8c0-12.6,3-21.9,8.9-28c6-6,15.2-9,27.7-8.9h19.9
		c10.3,0,18.2,2.1,23.6,6.4c5.4,4.3,8.6,11,9.5,20.1c0.3,2.3-0.1,4.1-1.3,5.2c-1.2,1.2-2.9,1.8-5.2,1.8c-2.2,0-3.9-0.6-5-1.7
		s-1.9-2.9-2.2-5.2c-0.6-4.9-2.2-8.3-5.1-10.1s-7.5-2.7-14.1-2.7h-19.9c-5.9-0.1-10.5,0.6-13.8,2c-3.3,1.4-5.6,3.8-7,7.1
		c-1.3,3.3-2,7.9-2,14v37.8c0,6,0.7,10.7,2.2,13.9c1.4,3.3,3.8,5.6,7,7c3.3,1.4,7.9,2.1,13.9,2.1h19.7c5.2,0,9.3-0.6,12.1-1.7
		s4.8-3.1,5.9-5.9c1.2-2.8,1.7-6.8,1.7-12.1v-7.7l-12.8-0.2c-4.6,0-6.9-2.3-6.9-6.9c0-2.2,0.6-3.9,1.8-5.1c1.2-1.2,2.9-1.8,5.1-1.8
		l19.7,0.2c2.2,0,3.9,0.6,5.1,1.8s1.8,2.9,1.8,5.1v14.6c0,11.6-2.7,20.1-8.1,25.5c-5.4,5.4-13.9,8.1-25.4,8.1h-19.8
		C427.2,181,417.9,178,411.9,171.9z"/>
	<path id="Lines_10_" class="st1" d="M320.8,34.1c-0.4,0-0.9-0.1-1.2-0.4c-0.9-0.7-1.1-2-0.4-2.9l22.6-30c0.4-0.5,1-0.8,1.7-0.8H498
		c1.2,0,2,0.9,2,2s-0.9,2-2,2H344.3l-22,29.1C322,33.7,321.3,34.1,320.8,34.1z M499.9,18.5c0-1.2-0.9-2-2-2H355.5c-1.2,0-2,0.9-2,2
		c0,1.2,0.9,2,2,2h142.3C499,20.5,499.9,19.6,499.9,18.5z M159.2,249.5l22.6-30c0.7-0.9,0.5-2.2-0.4-2.9s-2.2-0.5-2.9,0.4l-22,29.1
		H2c-1.2,0-2,0.9-2,2c0,1.2,0.9,2,2,2h155.6C158.3,250.4,158.8,250,159.2,249.5z M147.5,231.8c0-1.2-0.9-2-2-2H2c-1.2,0-2,0.9-2,2
		s0.9,2,2,2h143.4C146.6,233.9,147.5,233,147.5,231.8z"/>
</g>
<path id="Core" class="st2" d="M704.7,166.7c-4.9-4.9-7.4-12.6-7.4-23.1v-32.1c0-10.5,2.5-18.3,7.3-23.2c4.9-4.9,12.6-7.4,23-7.3
	h16.9c8.7,0,15.3,1.8,19.7,5.4c4.5,3.6,7,9.3,7.7,17.2c0.2,1.7-0.2,3-1,3.8c-0.9,0.9-2.2,1.3-3.9,1.3c-3,0-4.7-1.7-5.2-5
	c-0.5-4.8-2-8-4.5-9.9c-2.6-1.8-6.8-2.7-12.8-2.7h-16.9c-5.1-0.1-9.2,0.5-12.1,1.8c-2.9,1.3-5,3.4-6.3,6.4c-1.3,3-1.9,7.1-1.9,12.3
	v32.1c0,5.2,0.6,9.3,1.9,12.2c1.3,2.9,3.4,5,6.3,6.3c2.9,1.3,7,1.9,12.2,1.9h16.8c6,0,10.2-0.9,12.8-2.7c2.6-1.8,4.1-5.1,4.5-9.9
	c0.5-3.4,2.2-5,5.2-5c1.7,0,3,0.4,3.9,1.3c0.9,0.9,1.2,2.2,1,3.8c-0.7,7.8-3.2,13.6-7.7,17.2c-4.5,3.6-11.1,5.4-19.7,5.4h-16.8
	C717.3,174.1,709.6,171.6,704.7,166.7z M800.9,167.6c-4.3-4.3-6.5-11-6.5-20v-16.1c0-9.1,2.1-15.9,6.4-20.2c4.3-4.3,11-6.4,20.2-6.4
	h11.5c9.1,0,15.9,2.1,20.2,6.4c4.3,4.3,6.4,11,6.4,20.2v16c0,9.1-2.1,15.8-6.4,20.1c-4.3,4.3-11,6.5-20.2,6.5H821
	C812,174.1,805.3,171.9,800.9,167.6z M832.5,164c4.3,0,7.6-0.5,9.9-1.5c2.3-1,4-2.7,5-5c1-2.3,1.5-5.6,1.5-9.9v-16
	c0-4.3-0.5-7.6-1.5-9.9c-1-2.3-2.7-4-5-5c-2.3-1-5.6-1.5-9.9-1.5H821c-4.3,0-7.6,0.5-9.9,1.5c-2.3,1-4,2.7-5,5
	c-1,2.4-1.5,5.7-1.5,10v16.1c0,4.2,0.5,7.5,1.5,9.8c1,2.3,2.7,4,5,5c2.3,1,5.6,1.5,9.9,1.5H832.5z M931,106.2
	c0.9,0.9,1.3,2.1,1.3,3.7c0,1.6-0.4,2.8-1.3,3.7c-0.9,0.9-2.1,1.3-3.7,1.3c-8.4,0-14.8,1.7-19.2,5.2c-4.4,3.5-6.7,8.2-6.7,14.3V169
	c0,1.6-0.4,2.8-1.3,3.7c-0.9,0.9-2.1,1.3-3.7,1.3c-1.6,0-2.8-0.4-3.7-1.3c-0.9-0.9-1.3-2.1-1.3-3.7V110c0-1.6,0.4-2.8,1.3-3.7
	c0.9-0.9,2.1-1.3,3.7-1.3c1.6,0,2.8,0.4,3.7,1.3c0.9,0.9,1.3,2.1,1.3,3.7v7.4c2.7-4.1,6.3-7.2,10.6-9.3c4.4-2.1,9.5-3.2,15.3-3.2
	C928.9,104.9,930.1,105.4,931,106.2z M959.9,143.6v4.1c0,4.2,0.5,7.5,1.5,9.8c1,2.3,2.7,4,5,5c2.3,1,5.6,1.5,9.9,1.5h11.5
	c5.2,0,9.1-0.6,11.5-1.7c2.4-1.1,4-3.1,4.6-5.9c0.4-1.6,1-2.8,1.8-3.6c0.8-0.8,2-1.2,3.6-1.2c1.7,0,3,0.4,3.8,1.3
	c0.9,0.9,1.2,2.2,0.9,3.9c-0.9,5.9-3.5,10.2-7.8,13c-4.3,2.8-10.4,4.2-18.3,4.2h-11.5c-9.1,0-15.8-2.1-20.1-6.4
	c-4.3-4.3-6.5-11-6.5-20v-16.1c0-9.1,2.2-15.9,6.5-20.2s11-6.5,20.1-6.4h11.5c9.1,0,15.9,2.1,20.2,6.4c4.3,4.3,6.4,11,6.4,20.2v7
	c0,1.6-0.4,2.8-1.3,3.7c-0.9,0.9-2.1,1.3-3.7,1.3H959.9z M959.9,133.5h44.5v-2c0-4.3-0.5-7.6-1.5-9.9c-1-2.3-2.7-4-5-5
	c-2.3-1-5.6-1.5-9.9-1.5h-11.5c-4.3-0.1-7.6,0.4-9.9,1.4c-2.3,1-4,2.7-5,5.1c-1,2.4-1.5,5.7-1.5,10V133.5z"/>
<path id="Separator-grey" class="st2" d="M595.3,180.9c1.2,0,2-0.9,2-2V71.4c0-1.2-0.9-2-2-2s-2,0.9-2,2v107.4
	C593.2,180,594.1,180.9,595.3,180.9z"/>
</svg>
